<?xml version="1.0" encoding="UTF-8"?>
<svg id="Layer_1" data-name="Layer 1" xmlns="http://www.w3.org/2000/svg" viewBox="0 0 384.62 319.24">
  <defs>
    <style>
      .cls-1 {
        fill: #1C1A5E;
      }
    </style>
  </defs>
  <path class="cls-1" d="M226.51,185.47c4.72,5.44-16.51,17.6-36.8,8.02-6.54,2.58-12.95,4.2-19.88,4.04-13.16-.31-24.11-8.21-26.13-21.89-7.3-3.52-16.73-.38-19.88-11.1-1.35-4.59.85-10.54.31-15.2-.59-5.06-1.35-9.28-1.63-14.35l-5.53-7.69-5.69-.54c-1.07-.1-.91-3.34-.12-4.14,4.96-5.04-4.07-12.55,2.98-15.04,4.27-1.51,1.86,10.37,7.09,5.71l6.31-5.63c-1.39-4.61-2.69-8.19-3.71-12.71-1.5-6.66,1.09-15.14,5.72-20.01,6.08-6.4,14.45-7.92,23.09-8.09,3.96-6.03,11.18-8.92,17.92-5.2l10.53,5.81c12.6-8.6,32.36-13.61,39.01-.76.76,1.46,2.3,4.37,3.43,5.31,5.4,2.91,11.12,5.91,14.93,10.69,10.7,13.42,11.53,21.55,13.77,37.7,1.04,7.49-1.23,15.16-2.66,22.43l3.1,15.1c2.6,12.68-5.09,23.7-12.65,23.68-.99,0-3.03-2.4-2.68-3.35,1.03-2.78,14.61-5.17,8.07-24.62l-9.24,11.93c-10.09,13.02-21.95,11.94-34.82,21.21l-2.49,1.2c-3.64,1.76,10.71,7.67,23.03-2.44,1.15-.94,3.82-.99,4.62-.07ZM199.88,70.98l13.64-1.57-1.58-3.45c-9.35-1.83-18.61.11-25.89,6.02,1.13,1.78,2.81,3.75,4.07,3.66,1.69-.12,3.17-1.6,4.25-3.56.65-1.18,3.8-.89,5.52-1.09ZM175.87,72.23c-4.41-3.67-8.86-7.53-14.94-5.61,2.25,3.3,5.41,3.72,8.61,4.88,2.29.83,3.48,1.64,6.33.73ZM146.84,81.44c2.61-1.51,4.82-5.92,1.97-7.94-1.47-.84-5.35.31-7.07.94-11.81,4.35-13.92,13.56-10.78,25.8,5.85-4.84,4.37-12.15,15.88-18.8ZM219.48,91.39c-.06-2.43-.88-5.7-1.55-7.58l-10.42-4.62c-2.68-1.19-5.13-2.54-7.41-.18l9.8,7.62c1.76,1.37,2.85,2.24,3.41,4.94.33,1.63,5.97,1.49,6.18-.18ZM177.45,88.27c.59-.41,1.52-1.61,1.85-2.2s-1.47-2.83-1.97-2.35l-3.53,3.44c-.45.43.82,3.1,1.33,2.74l2.31-1.63ZM193.36,91.84l-2.99-4.2c-.77-1.08-4.97.03-5.09,1.36.8,2.74,4.71,4.65,8.07,2.84ZM149.68,88.49c.68-1.96-5.81-.17-7.39,6.74,3.66-1.47,6.28-3.55,7.39-6.74ZM166.46,101.22c.67.77,2.47,2.2,3.3,2.04s2.15-2.43,1.47-2.97l-2.35-1.91c-2.9-2.35-6.16-2.49-10.31-1.17-1.28.41-1.84,3.55-1.43,5.21.32,1.3,2.31,3.05,3.41,3.35l2.23-4.55c.38-.77,2.99-.77,3.68,0ZM191.23,98.11c-5.16-1.05-8.09-1.19-12.55-.77,1.15,3.36,3.66,5.49,6.24,5.36,2.03-.1,4.34-1.81,6.32-4.59ZM241.24,124.05c2.11-6.68-1.04-12.2-3.35-17.82-1.69-5.33-7.33-8.37-12.95-5.57,4.18,7.81,11.21,13.58,16.3,23.38ZM146.79,113.7l-1.42-8.68c-.11-.65-.54-3.02-1.09-2.68l-2.36,1.48c-3.36,2.11-3.86,5.13-3.06,8.74l1.51,6.86c2.43-1,6.38-3.67,6.42-5.72ZM165.87,117.12l1.87-5.1c1.08-2.95,1.73-5.39.24-8.24l-4.24,8.52c-.33.67-.45,2.87-.47,3.57s2.03,1.52,2.6,1.25ZM209.33,120.48c1.85-2.36,2.33-4.32,2.83-6.75.71-3.51-3.3-8.82-6.31-7.08-4.25,4.54-7.55,1.59-9.95,4.02-.38.38.4,2.51.92,2.8l12.51,7ZM130.84,132.59l5.27-6.84c-1.33-4.29-2.52-7.69-4.53-12.47-5.1,2.6-10.33,7.31-9.72,10.43.24,1.19,2.62,2.69,3.72,2.3,1.03-.37,3.26-1.11,3.44-.39l.83,3.18.99,3.79ZM175.53,138.23l4.3-13.49c.77-2.43,3.36-6.4.44-8.32l-2.52-1.66c-.27-.18-11.12,7.43-4.33,17.21l2.11,6.27ZM203.85,135.18l4.96-7.87-17.92-10.17c-.58,3.01.32,4.91,2.01,6.66l10.94,11.38ZM148.29,133.87c2.63-3.63,4.36-8.14,3.21-11.75-2.92-1.7-7.89,1.95-7.45,5.48l4.24,6.28ZM194.01,145.88l5.82-5.57-11.03-12.35-1.83-1.8c-.34-.33-2.04,1.31-2.14,1.78l-2.22,9.7c-.32,1.4-.29,3.77.28,4.74.86,1.48,9.49,5.08,11.12,3.52ZM211.16,141.58c3.79-3.02,5.63-7.61,3.07-12.22l-2.88,5.25c-1.19,2.17-1.79,4.27-.18,6.97ZM230.79,145.44c.94-3.86.57-7.81-.04-11.24l-7.74-2.65-5.11,12.88c.95,1.74,3.94,3.67,5.95,4.01s6.49-1.13,6.95-3ZM147.44,143.2l-7.79-10.39c-1.77.37-3.9,3.07-3.73,4.4.32,2.43,7.69,7.98,11.52,5.99ZM163.28,148.83c2.6-3.19,1.7-11.84-3.54-11.94-1.65-.03-4.2,4.28-3.17,5.63,1.75,2.29,4.1,4.44,6.72,6.31ZM176.46,155.71l-.09-8.34c-.01-1.31-2.73-3.38-4.65-3.82-1.95,6.25-.36,13.12,4.74,12.16ZM144.54,154.63c.26-1.02-.25-3.46-1.21-4.05l-9.48-5.78-2.16,2.22c-1.71,1.77,11.33,13.58,12.85,7.61ZM206.68,150c1.29.07,2.04-3.16.96-4.11s-3.37-1.24-4.48-.26c-.77.68-1.39,3.14-.66,3.67.58.42,1.95.6,4.19.71ZM196.43,158.85c.96-.92,1.73-3.71.93-4.31s-3.23-.92-4.1-.32l-7.13,4.92c3.2,1.92,7.14,2.75,10.3-.28ZM222.74,156.26c-8.32-.96-17.58-.13-17.09,5.16,6.49-.22,12.28-.54,17.09-5.16ZM141.29,163.21l-10.64-6c-1.37,2.43-1.26,6.54.73,8.44,3.53,3.38,10.81,2.59,11.53.66.3-.82-.75-2.62-1.61-3.1ZM162.29,167.97c1.52-.07,3.9-.96,4.89-1.74-7.16-2.36-11.29-4.11-17.3-8.85-.72,4.15-.76,7.52-.28,11.21l12.68-.62ZM214.56,168.91c0-.49-.15-2.28-.45-2.11s-1.69.78-2.02.79l-14.3.22c-1.03.02-2.46.58-2.72,1.22s.64,2.73,1.3,2.94c8.58,2.79,12.41,3.16,18.2-3.06ZM191.45,177.03l-5.3-5.1c-.91-.88-2.79-2.45-3.97-2.41-1.01.03-3.06.87-4.43,1.48,0,3.47,2.83,6.72,6.67,6.48l7.03-.45ZM176.36,182.33c-7.69,1.04-12.77-2.16-16.71-7.57l-10.11.35c1.78,5.88,4.42,10.56,8.97,13.06,7.71,4.23,16.55,5.19,24.35.53l-6.51-6.36Z"/>
  <path class="cls-1" d="M280.66,160.95c-8.1-8.86-13.43-20.31-14.78-32.08l-.34-22.16c-2.22-17.59-11.78-33.07-25.62-43.93-22.34-17.52-56.89-23.77-83.6-15.14-10.71,3.46-20.51,8.08-29.37,14.75-17.75,13.37-27.67,33.47-29.42,55.4-2.56,32.08,8.52,68.82,29.11,93.54,7.25,8.71,11.13,18.07,8.32,29.75l-7.97,33.18c-.26,1.09-2.1,2.71-3.04,2.84-1.1.15-3.16-2.48-2.9-3.61l2.82-11.87,2.05-8.64,2.76-11.39c2.13-8.8,1.24-16.75-4.91-23.96-16.54-19.4-26.57-42.94-30.71-68.26-4.84-29.6-1.14-60.17,19.97-82.46,33.62-35.49,92.16-38.5,130.67-8.99,14.39,11.04,23.96,26.88,27.36,44.19,1.32,6.7.38,12.3.2,18.78-.38,14.28,6.23,28.27,16.11,38.23,4,4.03,7.83,8.4,5.24,14.81-2.62,6.49-10.03,10.6-16.25,14.22.16,6.39-.06,12.37-1.58,18.32,1.06,4.97,1.03,10.08-.27,15.05.83,6.13-.73,11.52-4.77,15.99-12,13.27-38.05-3.49-46.89,13.51-8.18,15.73,3.36,26.35-2.15,30.15-1.08.74-3.64-.74-4.18-2.62-4.71-16.6-2.74-36.93,14.12-40.85,13.79-3.2,23.26,2.84,32.28-2.58,5.71-3.43,5.58-7.97,5.59-13.66,0-3.49,1.07-7.73.4-11.1s-.59-6.36.84-9.42c4.19-8.98-5.25-14.03,2.59-17.72,6.61-3.12,11.67-6.68,15.87-13.2-2.18-3.27-4.54-5.79-7.55-9.08Z"/>
</svg>