<?xml version="1.0" encoding="UTF-8"?>
<svg id="Layer_1" data-name="Layer 1" xmlns="http://www.w3.org/2000/svg" viewBox="0 0 384.62 319.24">
  <defs>
    <style>
      .cls-1 {
        fill: #1C1A5E;
      }
    </style>
  </defs>
  <g id="kwGOkQ.tif">
    <g>
      <path class="cls-1" d="M176.64,89.84c.79-1.12,1.49-1.92,1.42-3.2-.06-1.11-1.19-2.09-2.44-2.44l-5.22-1.47-10.91-2.06c-8.73-1.65-17.25-.35-25.81,1.32l-6.43,1.56-6.65,2.17-5.98,2.43-3.95,1.94-3.76,2.13-3.53,2.35c-5.37,3.57-9.9,8.01-13.75,13.14l-2,2.67-1.96,3.07-1.98,3.53c-.94,1.67-1.64,3.35-2.27,5.27l-1.01,1.8-1.86,6.99c-2.54,9.53,1,19.47-1.48,27.55l-2.09,6.8-1.69,4.1c-2.89,7-7.51,12.88-12.94,18.09-1.74,1.67-2.5,3.6-1,5.56,2.32,3.03,5.13,5.27,8.37,7.16l6.91,4.04c1.43.84.03,2.85-.38,3.85-1.28,3.08-1.49,7.33.05,10.33,1.21,2.35,2.48,4.36.82,7-1.36,2.17-1.33,4.95.02,7.22,1.13,1.9.71,3.74.11,5.84-.97,3.39,2.29,8.11,5.33,9.62s5.89,2.12,9.13,1.95l6.71-.36c5.04-.27,10.25-.33,14.84,1.35,3.31,1.22,5.62,3.74,7.63,6.3,1.6,2.03,3.52,7.05,3.52,9.1l.03,12.09c0,3.28-1.37,6.43-2.77,9.18l-2.74.06c-.62.01-1.13-1.61-.99-2.27l1.78-8.29c.92-4.29.09-10.66-1.84-15.29l-1.96-2.86c-3.63-3.87-8.53-5.29-13.69-4.89l-7.56.35-7.81-.07c-6.09-.06-11.44-3.92-13.49-9.65-1.42-2.61-1.94-5.38-.9-8.28-.87-3.59-1.14-7.09-.85-10.78,1.69-6.16-3.13-9.24-.61-16.9.69-2.09-2.07-3.25-3.29-4.01l-3.99-2.49c-1.45-.9-3.06-2.35-4.21-3.73l-2.31-2.76c-.8-.95-1.38-3.25-1.56-4.6-.33-2.39.83-4.88,2.24-6.4l6.8-7.31,2.16-3.08,2.28-3.67,1.98-4.2,1.96-5.22c1.31-3.49,2.02-7.44,2.16-11.23.16-4.21-1.66-9.24-.15-16.15.55-2.52.65-5.39,1.48-7.79l1.97-5.71,1.76-4.01c4-9.14,13.2-20.05,21.45-25.49l5.85-3.85,3.25-1.75,5.22-2.36,5.01-2.03,6.39-2.13,4.82-1.17c3.13-.76,6.03-1.39,9.25-1.63l5.86-.44c3.06-.23,6.3-.3,9.4-.05l4.69.38,5.03.43c4.3.37,8.81,3.01,10.77,1.64,1.4-.98-.34-6.06,1.52-10.86l1.3-3.34,1.46-3.12,2.61-3.68c1.41-1.98,3.04-3.7,5.07-5.05l3.06-2.03,3.66-1.77c4.08-1.97,8.47-2.21,13-1.27,1.63.34,2.45-.56,3.36-1.66,2.25-2.75,4.79-5.4,7.82-7.24l3.1-1.88,3.42-1.76,4.64-1.67c6.23-2.24,15.72-1.49,22.45,1l6.24,2.94,2.79,1.86,2.33,1.37c.84.5,2.07-.84,2.79-1.1l5.97-2.17c3.03-1.1,6.54-.96,9.84-1.04,3.57-.09,6.74.56,9.99,1.75,7.86,2.89,13.48,8.58,17.19,16.15.78,1.6,1.57,4.6,3.07,5.52l5.4,1.79c1.53.51,2.95,1.17,4.25,2.11l3.2,2.33c.84.61,1.62,1.53,2.17,2.44l2.7,4.48c1.71,2.83,1.68,11.93.51,15.68-.35,1.12-1.75,2.85-1.72,4.07.11,4.99,4.04,10.52-.49,23.16l-2.12,4.02c-2.5,4.75-6.46,7.91-10.95,10.54l-3.79,1.73c-2.29,1.04-4.5,1.67-7.08,1.81l-6.3.33-2.94,1.98-3.75,2.63-3.25,1.83-5.32,2.25c-3.2,1.36-6.45,1.91-9.99,1.89l-6.26-.04-4.73-.42c-1.7-.15-3.18-.96-4.87-1.46l-5.48-1.62-5.99,2.83-5.27,1.95c-3.99,1.48-9.29-.11-9.33,3.64l-.16,13.29-1.06,6.42-1.12,8.25-2.29,9.48-2.04,6.78-2.17,6.2-2.1,5-1.86,4.06-1.14,2.06-2.18,4.14-2.17,3.74-2.46,3.84-7.35,9.88-2.03,2.64-1.91,3.09c-2.23,3.61-2.18,11.97-.65,15.86l1.49,6.57,2.39,9.81,1.8,7.85.82,3.29c0,1.61-1.06,2.77-2.21,2.82-1.58.07-2.34-1-2.73-2.54l-1.43-5.67-1.43-6.61-1.58-6.79-1.26-4.91-1.78-8.84c-.27-1.35-.31-3.91.02-5.27l1.57-6.54c.24-.99,1.32-2.92,1.94-3.79l2.27-3.22,2.43-2.98,7.34-10.28,1.86-3.1,2.27-4.07,2.09-4.17,2.32-5.21,1.92-4.77,1.99-5.96,2.26-8.2,1.96-9.1.81-6.68.29-4.73.15-11.69c.05-3.62-5.03-2.29-8.11-3.59l-4.89-2.05-3.58-2.15-2.72-1.83-6.57-6.5c-.91-.9-1.62-1.92-3.11-1.87-2.91.08-5.53-.32-8.13-1.5l-4.34-1.97-2.98-2.06c-5.07-3.51-9.51-11.4-9.49-17.14v-5.1c.01-2.6.71-4.85,1.74-7.19l1.52-3.44,1.91-2.7ZM273.96,139.21l7.57-1.92,4.54-2.09,3.45-2.05,2.81-2.11c1.79-1.34,2.89-2.53,5.41-2.27,4.18.44,11.43-1.39,15.18-3.72,3.22-2,8.03-6.58,9.3-9.53l2.02-4.67c1.06-2.45.67-5.41.79-8.05.37-8.34-3.73-9.39-1.21-12.98.84-1.19,1.22-2.78,1.68-4.25,1.13-3.67,1.23-6.8-.04-10.45-.72-2.05-1.56-3.89-3.24-5.22l-4.49-3.58c-3.75-2.99-9.18.14-11.15-5.23l-1.77-4.83c-2.72-5.37-6.48-9.79-11.62-12.82-1.82-1.07-3.39-1.5-5.52-2.08l-3.48-.96c-2.01-.55-4.63-.52-6.6,0l-7.34,1.94c-3.15.83-5.94,5.23-9.27,2.65-2.2-1.71-4.55-3.78-7.16-4.9l-4.13-1.77c-5.9-2.52-15.09-2.71-20.97-.2l-3.53,1.51c-4.31,1.84-7.96,5.11-10.92,8.77-1.02,1.26-1.69,3-3.37,3.85-1.86.94-8.96-2.71-16.34,1.12-5.18,2.69-8.82,6.62-11.63,11.56-.85,1.49-1.18,3.34-1.69,5.04-1.08,3.6-.99,6.84.19,10.46,2.27,6.93,4.39,6.16.76,10.58l-2.67,3.26c-1.28,1.56-1.69,3.39-2.28,5.27-1.84,5.94-1.06,12.51,2.51,17.39.79,1.08,2.04,2.82,3.01,3.54l3.03,2.23c.74.55,2.44,1.7,3.41,1.91l6.75,1.48c2.94-.34,5.26-.03,6.85,2.74,1.17,2.04,3.12,3.88,5.04,5.34l3.1,2.37,2.86,1.8,4.94,2.19c2.3,1.02,4.57,1.41,7.13,1.42l5.5.02c2.1,0,4.03-.52,6.02-1.21l6.87-2.39,4.3-2.38c2.76-1.53,5.54-.32,8.05,1.12,1.21.7,3.2.8,4.61,1.22,4.16,1.26,8.21,2,12.75.85Z"/>
      <path class="cls-1" d="M273.04,181.65c-1.65,5-8.3,9.43-14.17,10.32-7.62,1.15-15.03-2.86-18.43-9.85-1.78-3.66-1.5-8.27-.28-12.22l2.31-3.5c2.15-3.26,4.37-6,6.28-9.2,2.34-3.92,12.6-3.38,15.58-1.48,2.53,1.61,4.9,3.28,6.7,5.56.59.75,1.67,2.19,1.94,2.99l1.83,5.45c.57,1.68.64,4.65.07,6.36l-1.84,5.58ZM250.61,185.75c4.33,2.41,10.24,1.66,14.1-1.44,1.46-1.17,2.99-3.1,3.9-4.83,2-3.81,1.89-9.03-.01-12.67-2.39-4.58-6.69-7.66-11.49-7.98-2.78-.19-4.39,1.32-5.68,3.52l-1.85,3.15c-2.13,2.72-4.53,5.31-5.65,8.58-.13.96-.15,3.25.14,4.17,1.13,2.96,3.45,5.78,6.55,7.5Z"/>
      <path class="cls-1" d="M213.19,195.65c-1.95,2.97-5.82,4.72-8.88,4.31-3.87-.51-6.57-2.31-8.63-5.53-.96-1.51-.92-4.03-.97-6.04-.12-5.25,3.12-10.04,8.44-10.63,3.69-.41,7.41.19,9.89,3.4,3.32,4.29,3.25,9.77.14,14.49ZM209.76,185.46c-.7-1.54-3.2-3.34-4.99-3.19-2.56.21-4.79,2.9-5.31,5.18-.57,2.49.35,4.45,1.78,6,1.35,1.45,3.41,2.07,5.6,1.48,3.28-2.28,4.44-6.13,2.91-9.46Z"/>
      <path class="cls-1" d="M244.78,85.34c3.26-3.3,8.9-4.21,11.23-8.79.66-1.68-1.64-4.52-3.41-5-5.73-1.54-7.69,2.71-11.67,3.02-.89.07-1.87-1.76-1.65-2.52.34-1.17,1.16-2.1,2.25-2.7l3.27-1.82c5.88-3.28,13.17-.9,15.92,5.57v6.11c-2.47,3.16-5.19,5.69-8.94,7.26-1.29.54-2.87,1.95-3.99,2.97l-.21,4.97c-.04.93-1.93,2.14-2.96,2.6-3.02-3-2.65-8.83.16-11.67Z"/>
      <path class="cls-1" d="M214.85,102.36c-1.3-2.49-.09-6.56,2.14-9.24,3.38-4.06,8.22-7.75,3.91-11.37-3.03-2.54-7.17-.57-9.31,2.12l-2.7,3.4c-.51.64-2.26.46-2.88-.14-2.26-2.22,1.38-6.65,4.47-8.85l2.26-1.61c5.32-1.44,8.78-1.33,12.55,2.36,3.22,3.14,2.22,9.11.75,10.91l-4.17,5.09c-2.02,2.47-3.09,4.68-1.48,7.9.44.88.2,2.46-.4,3.09-.67.7-2.81.81-3.19.07l-1.96-3.75Z"/>
      <path class="cls-1" d="M275.86,102.93c-.95-2.04-.44-5.44.82-7.3,1.44-2.13,4.24-4.06,6.78-4.39,3.42-.45,6.88-.87,9.32-3.47.4-1.02.52-3.36-.09-4.22-2.74-3.87-7.39-4.2-11.21-1.96-1.12.66-2.77-.15-3.27-1.11-.6-1.18-.13-2.63,1.39-3.45,3.04-1.65,11.56-1.48,13.26-.09l2.6,2.14c1.55,1.28,2.88,4.36,2.92,6.49.11,4.97-4.2,8.76-8.82,9.45-6.71,1-8.51,1.67-9.99,7.36-.27,1.05-3.06,1.95-3.71.56Z"/>
      <path class="cls-1" d="M221.37,115.75c-2.4-.42-4.09-3.45-2.53-5.3l2.57-1.62,2.3.94c.96.39,1.4,2.8,1,3.76-.48,1.15-2.05,2.44-3.33,2.21Z"/>
      <path class="cls-1" d="M247.52,99.98c1.52,1.46,1.37,4.46-.38,5.5-.89.53-2.55.52-3.25.14-.98-.53-1.78-1.64-1.88-3-.08-1.05,1.01-2.37,1.81-2.8.97-.53,2.91-.6,3.7.15Z"/>
      <path class="cls-1" d="M278.01,111.32c-.63,1.03-2.79,1.7-3.77,1.32-1.48-.58-2.47-1.87-2.57-3.75l2.48-2.7c1.64-.41,2.76.38,3.49,1.35.77,1.03,1.14,2.5.36,3.78Z"/>
    </g>
  </g>
</svg>