<svg xmlns="http://www.w3.org/2000/svg" width="700" height="450" viewBox="0 0 700 450" fill="none">
  <g stroke="#1C1A5E" stroke-width="4" stroke-linecap="round" stroke-linejoin="round">
    <path d="M140 270
             C120 250, 120 215, 150 200
             C150 170, 180 150, 210 155
             C225 130, 260 120, 290 135
             C315 120, 355 120, 380 140
             C410 130, 440 140, 460 165
             C500 165, 530 195, 530 230
             C560 240, 570 280, 545 305
             C530 330, 500 345, 470 335
             C445 360, 405 370, 370 350
             C345 370, 305 370, 275 350
             C250 365, 210 355, 190 330
             C160 325, 140 300, 140 270 Z"/>
    <path d="M220 160 C240 150, 265 150, 285 165"/>
    <path d="M310 145 C335 135, 360 140, 380 155"/>
    <path d="M410 160 C435 160, 455 175, 470 195"/>
    <path d="M200 220 C230 210, 255 220, 270 240"/>
    <path d="M300 200 C325 210, 335 230, 335 255"/>
    <path d="M380 205 C400 215, 410 235, 410 260"/>
    <path d="M455 225 C470 235, 480 255, 480 275"/>
    <path d="M220 300 C250 290, 280 300, 300 315"/>
    <path d="M320 300 C340 315, 350 335, 345 355"/>
    <path d="M400 300 C420 315, 430 335, 425 355"/>
    <path d="M470 305 C490 315, 500 335, 500 350"/>
  </g>
</svg>
