<?xml version="1.0" encoding="UTF-8"?>
<svg id="Layer_1" data-name="Layer 1" xmlns="http://www.w3.org/2000/svg" viewBox="0 0 259.43 176.51" fill="#1C1A5E">
  <path d="M23.83,124.96c3.22,16.01,31.25,17.91,47.63,17.8-3.61,1.88-7.27,1.63-11.12,1.76-9.83.34-18.95.15-27.68-4.55-8.16-4.39-14.51-12.76-14.1-22.57.41-9.72,5-19.2,11.55-26.11,5.76-6.08,14.2-7.34,22.21-6.76l14.02,1.02,5.51-9.74c1.35-2.39.33-8.21.55-11.78,6.85,2.94,6.16,11.3,1.88,16.43-1.05,1.26-1.74,3.06-2.29,5.16l17.51-1.96,2.4-.31c.68-.09.44,2.9-.32,3.05l-19.36,3.67c-10.94,2.07-25.95-4.78-34.92,1.45-10.41,7.23-15.98,20.98-13.47,33.44Z"/>
  <path d="M216.6,124.79c8.99-7.76,19.31-6.23,19.91-21.38.64-15.98-5.65-30.05-19.15-39.52,6.29-.75,9.54,3.71,12.86,7.8,8.66,10.67,13.62,26,8.76,39.49-3.14,8.69-13.58,13.62-22.38,13.61Z"/>
  <path d="M224.96,102.81c-3.21,1.51-7.01,1.72-10.44,1.59-.79,5.08-1.06,10.98-5.88,14.78.22-6.82,1.23-13.2.41-19.77-.93-7.5-5.29-13.85-8.02-21.64,8.34,4.82,10.59,14.33,13.16,23.21,6.84,1.23,12.13-3.85,16.08-10.53,3,5.12-.22,9.96-5.31,12.36Z"/>
  <path d="M137.75,153.47c-10.13-1.16-19.16-6.13-25.91-13.19,5.31.62,9.39,3.55,13.78,5.76,16.87,8.49,34.13.99,43.58-15.61-1.01,15.39-16.65,24.74-31.45,23.05Z"/>
  <path d="M127.5,133.26c-4.13-6.65-6.48-13.38-11.96-17.95-8.44-7.04-17.93-7.96-29.41-8.35,7.91-5.3,15.97-2.48,24.7-.18,1.63-3.87,1.65-8.66,1.54-13.93,6.85,2.78,4.93,10.84,1.62,15.93,6.63,6.31,15.01,13.41,13.5,24.48Z"/>
  <path d="M52.01,50.12c-13.57,7.93-21.38,25.26-25.68,40.04-6.09-10.33,4.22-27.86,13.13-36.53,3.35-3.27,8.05-5.8,12.54-3.51Z"/>
  <path d="M214.03,73.36c-3.56-1.24.19-9.92-4.52-17.28-7.53-11.75-21.14-16.97-34.78-15.21,2.54-3.4,6.68-3.91,10.75-3.61,11.44.83,22.92,7.19,28.24,17.63,2.87,5.64,1.94,12.43.32,18.48Z"/>
  <path d="M171.92,119.9c6.55-18.87.16-34.95-16.76-46.15,13.47.72,23.05,14.93,23.24,27.42.11,7.02.39,14.48-6.49,18.73Z"/>
  <path d="M127.38,26.44c-9.06-.78-16.47,1.82-25.43,5.25.84-3.3,3.44-5.07,6.46-6.27,15.25-6.01,34.76-4.43,44.72,10.4-9.35-3.46-16.55-8.6-25.75-9.39Z"/>
  <path d="M100.43,36.39c-17.88-4.16-32.78,2.69-46.11,16.95,5.72-18.66,28.46-26.04,45.83-20.09l2.17,1.64c.42.32-1.69,1.47-1.89,1.5Z"/>
  <path d="M169.47,141.21c9.33-.14,18.16,2.94,27.23.39,4.42-1.24,10.14-3.42,13.5-6.11l9.2-7.39c-.91,4.8-3.25,7.14-6.69,9.79-11.78,9.17-29.42,13.14-43.24,3.32Z"/>
  <path d="M42.91,109.97c-2.31,6,.51,12.75,5.96,15.91,3.34,1.94,7,3.05,10.86,4.38-6.35,2.91-13.39-.08-17.25-4.47-4.32-4.92-6.21-11.67-4.02-18.01,1.69-4.9,4.23-9.55,10.26-9.64-2.31,4.35-4.28,7.83-5.82,11.82Z"/>
  <path d="M108.56,149.97c.49-.02,2.61-1.23,2.46-1.58s.32,1.58.52,2.48c-8.26,4.24-17.87,5.54-27.22,3.62-5.76-1.18-12.38-1.84-14.53-8.65,8.05,3.13,14.59,5.09,22.58,4.77l16.19-.64Z"/>
  <path d="M195.24,65.48c-13.73-7.03-28.11-9.26-43.17-3.7,6.49-12.16,38.07-8.55,43.17,3.7Z"/>
  <path d="M167.39,26.73l-11.99-1.7-12.38.04c2.14-2.65,5.49-3.86,9.23-3.91,9.81-.13,19.19.71,27.52,5.68,2.6,1.55,4.81,3.75,4.65,7-5.94-3.22-10.5-6.18-17.02-7.1Z"/>
  <path d="M161.08,54.17c-5.11-3.39-10.08-4.92-16.88-6.48,4.58-4.73,12-2.34,15.72.89.94.82,1.39,3.81,1.16,5.6Z"/>
  <path d="M120.21,61.62c3.35-9.31,1.18-14.46,3.59-16.36.61-.49,2.16,1.38,2.48,2.19,2.12,5.27,1.13,12.6-6.07,14.17Z"/>
  <path d="M84.78,128.2c.87-2.73,4.9,6.21,12.62,8.87-1.47,1.51-5.24,1.87-7.76.73-3.13-1.41-6.02-5.99-4.86-9.61Z"/>
</svg>