<?xml version="1.0" encoding="UTF-8"?>
<svg id="Layer_1" data-name="Layer 1" xmlns="http://www.w3.org/2000/svg" viewBox="0 0 568.77 321.75" fill="#1C1A5E">
  <path d="M338.78,133.34l-12.07.45c-3.76.14-9.39.96-11.45,4.35-3.73,6.15.17,14.43,6.57,16.7l17,6.05c19.85,7.06,36.29,19.36,38.74,41.25,25.3-10.55,50.9-15.36,77.44-16.96l23.1-1.39c1.54-10.58,7.43-18.37,14.76-26.05,21.66-22.7,44.45-45.76,42.79-79.67-3.61-.49-7.32,1.35-9.23,4.41l-11.91,19.07-25.31,40.34c1.49-9.96,6.63-16.97,11.02-24.74l15.48-27.39c3.22-5.7,6.1-10.65,11-15.38l.63-17.76c.06-1.57-1.63-4.96-2.79-5.95s-4.55-.38-5.93.83c-3.34,2.93-4.52,6.81-6.48,10.64l-23.31,45.61c-4.04,7.91-7.04,16.7-15.1,22.34l35.17-74.09c2.99-6.31,5.4-13.9,4.73-20.86-3.66-4.06-9.87-1.08-13.14,2.29-5.83,6.03-8.68,13.23-12.21,20.83l-20.94,45.06c-2.18,4.69-3.86,10.41-9.11,12.94,6.48-18.59,14.17-35.24,21.38-52.59l6.76-16.26c1.07-2.58,1.13-17.62-2.34-20.57-3.77-3.2-11.9-.5-15.92,5.23-14.86,21.15-26.24,46.49-37.63,62.36l-24.65,34.34c-10.37,14.45-16.85,29.33-20.05,47.77-3.13-12.47,1.51-24.83,7.35-35.42l8.5-15.4,14.71-20.46c12.52-17.41,22.88-35.69,33.58-54.27,6.49-11.27,14.35-25.59,25.21-29.7,4.01-1.52,9.11-.23,12.01,2.51,5.61,5.28,1.57,12.42,4.11,15.05,8.2-10.51,21.39-13.78,25.81-6.19,2.12,3.64.63,8.65-1.22,12.91,4.15-.56,8.54-1.26,11.27.21,2.25,1.21,4.95,6.03,4.66,9.02l-1.81,18.19c3.13-.62,8.4-.14,10.23,2.46,4.42,21.58-9.56,49.73-24.61,65.04l-25.26,25.71c-4.76,4.85-8.11,11.08-10.1,17.85,5.95.85,12.49.08,17.45,2.94,13.7,7.89,20.18,32.42,23.93,49.18.92,4.12-.54,9.01-4.82,10.63l-12.39,4.71,6.74,12.15c4.17,8.88,7.52,17.47,10.11,27.07-.21.73-.6,2.24-.97,2.09l-2.6-1.1-17.26-39.3-87.42,13.55c-11.55,1.79-21.46,1.95-33.6,1.88l3.89,18.43,1.68,12.32c.07.51-.31,2.57-.71,2.41l-2.53-1.03c-3.71-10.86-5.92-20.75-6.67-32.32l-13.64-2.53c-4.87-.9-7.94-5.9-8.5-10.51-1.55-12.74-1.83-25.12,1.11-37.68.88-3.75,5.44-6.67,8.67-8.23l11.85-5.71c-.41-10.1-6.66-18.7-14.5-25.53-13.85-12.07-31.28-12.47-42.04-18.81-7.83-4.61-12.33-14.99-7.4-23.23,4.74-7.92,24.7-7.39,37.13-6.34l12.04,1.02c12.93,1.09,24.45,1.47,37.26-2.58l-3.67,3.88c-13.19,3.48-25.98,4.35-39.45,2.41l-15.14-.49ZM511.13,213c-4.61-15.32-14.37-28.24-29.64-24.73,6.23,7.47,9.96,14.64,12.98,23.15,2.76,10.62,4.32,21.25,4.64,32.28-.32.55-1.46,2.57-1.8,2.16s-1.37-1.8-1.5-2.42l-3.11-14.37c-2.43-11.25-5.78-21.63-9.87-32.21l-3.47-8.97c-32.99-.66-65.82,5.02-97.12,16.1-4.39,1.55-7.4,2.43-11.6,4.86s-12.15,4.43-13.37,10.19c-2.31,12.13-1.9,25.28.2,37.24,1.85,10.6,50.82,6.33,68.35,3.43l50.47-8.35c12.64-2.09,24.9-4.06,36.83-8.1,4.69-1.59,5.36-5.82,4.15-9.84l-6.14-20.43Z"/>
  <path d="M68.06,252.13c-5.75,14.33-11.38,27.04-17.69,40.08l-2.87-1.33c4.28-14.08,9.76-26.13,17.06-39.37l-12.73-4.72c-3.61-1.34-5.76-6.06-4.85-9.73,4.38-17.66,10.19-42.72,24.71-50.28,4.96-2.58,11.08-1.87,16.71-2.55-2.75-13.01-14.06-22.22-22.97-30.97l-9.09-8.93c-6.27-6.16-10.96-12.86-15.72-20.43-8.78-13.94-14.9-29.97-12.29-46.7.56-3.58,6.36-4.26,10.24-3.06l-1.3-17.83c-.25-3.37,1.76-8.22,4.17-9.45,3.47-1.78,7.46-1.11,11.4-.1-.78-3.03-2.49-7.96-1.94-10.76,1.34-6.81,9.34-8.98,14.9-6.06,4.78,2.51,7.83,6.16,12.53,10.64l.74-11.82c.2-3.22,4.7-6.43,7.28-7.17,10.7-3.09,20.62,9.9,27,20.76l15.91,27.11c9.85,16.78,20.27,32.43,31.78,48.14,2.3,3.13,4.37,7.39,7.28,8.35,13.38,4.43,25.86,5.8,39.55,3.89,15.29-2.13,38.04-4.76,47.66,3.22,6.4,5.31,5.32,14.45-.23,20.51-5.05,5.53-12.68,9.4-20.21,11.36-20.34,5.31-39.57,17.18-41.4,38.66,10.19,4.35,21.89,9.27,21.91,19.54l.07,29.6c0,2.61-2.06,8.14-4.05,9.73-5.11,4.08-12.08,4.2-18.06,4.72-2.53,11.33-2.01,23.48-9.01,33.91-1.18-11.62,2.41-22.41,5.37-33.3-18.52.29-35.95-1.94-54.14-4.84l-67.72-10.82ZM32.77,79.15c-.59,23.11,12.63,46.41,27.58,62.2l16.52,17.44c6.86,7.25,12.29,14.94,13.8,25.03l19.99,1.21c29,1.75,53.58,5.76,80.73,16.76.3-17.72,16.78-33.6,31.53-38.73l21.61-7.51c5.61-1.95,9.78-6.73,10.11-12.77.26-4.79-4.01-8.54-9.1-8.72-10.46-.37-21.05-.7-31.65.17-15.58,1.28-30.46,1.26-45.21-5.79,8.01,14.22,18.41,33.91,14.21,48.42-2.68-10.81-4.82-20.23-9.56-29.69-7.83-15.61-18.6-28.74-28.77-43.05-13.51-19-24.13-38.97-35.87-59.07-6.03-10.32-15.73-24-24.14-18.23-1.36.93-2.59,3.92-2.61,5.95l-.17,15.12,23.21,53.76c2.1,4.85,3.48,9.63,4.84,14.65-3.9-1.86-4.46-4.66-5.88-7.71l-26.65-57.11c-5.09-10.9-12.47-21.65-22.32-16.53-.27,4.93-.06,11.22,2.14,15.76l19.54,40.26c6.28,12.94,12.22,25.35,17.82,39.48-8.1-5.8-11.08-14.92-15.24-22.97l-11.96-23.14-14.6-29.34c-1.61-3.24-6.84-6.54-9.72-2.74-1.52,2.07-1.98,7.48-1.81,10.27l.71,11.66c4.94,5.15,8.66,11.71,12.38,18.32l21.22,37.69c1.97,3.49,3.41,7.65,4.79,10.96l-1.37,1-15.5-24.93-20.02-32.86c-2.3-3.77-6.19-6.58-10.62-5.2ZM203.42,211.67c-32.36-17.85-76.8-24.75-113.59-24.01-5.87,10.86-9.44,21.88-12.07,33.96l-5.28,24.25c-4.58-3.86-2.34-8.2-1.91-12.31,1.89-18,5.18-30.83,16.82-45.97-22.95-2.28-27.83,18.37-33.46,37.33-1.59,5.37-3.05,10.74-1.59,16.46,3.75,2.13,8.81,3.85,13.34,4.79,26.76,5.57,52.98,9.56,80.13,13.76,18.61,2.88,36.35,3.81,55.03,2.07,6.63-.61,11.19-4.03,11.13-11.26l-.25-30.11c-.03-3.66-4.79-7.04-8.3-8.98Z"/>
  <path d="M350.25,90.85l23.05,11.45,1.62.98c.35.21.46,2.04.06,2.14-5.09,1.24-26.34-7.7-33.24-16.26,2.25-.81,5.5.21,8.51,1.7Z"/>
  <path d="M242.38,93.83c-9.35,7.6-17.99,14.7-30.6,18.25,6.91-8.91,16.91-14.16,27.12-19.51l3.47,1.25Z"/>
  <path d="M416.47,39.55c2.11-3.68,4.43,21.54-.02,35.19-4.03-7.56-3.29-29.41.02-35.19Z"/>
  <path d="M164.72,95.63c-6.23-11.23-8.8-24.61-5.54-37.84,4.09,12.12,5.54,24.52,5.54,37.84Z"/>
  <path d="M398.1,85.88c-8.54-7.48-16.48-17.7-19.61-29.77,9.65,7.2,15.22,18,19.61,29.77Z"/>
  <path d="M192.14,103.74c.97-9.47,4.7-16.78,8.04-24.57,1.29-3,2.9-5.69,6.05-7.59-2.53,11.88-5.75,23.35-14.09,32.16Z"/>
  <path d="M470.63,244.99c-6.33-13.9-9.85-28.17-14.99-41.95l-3.97-10.64c2.53,1.03,5.3,3.1,6.31,5.35,6.49,14.57,14.51,29.78,12.65,47.23Z"/>
  <path d="M441.85,250.29l-3.41-10.93-9.22-33.88c-.11-.39-.34-1.84.03-1.94l2.49-.64c6.8,15.19,11.31,30.39,13.4,46.78l-1.14,1.91c-.26.44-1.95-.69-2.14-1.29Z"/>
  <path d="M401.15,204.91c7.53,10.44,16.24,55.7,12.36,51.29-4.54-5.16-12.41-37.87-12.36-51.29Z"/>
  <path d="M387.16,248c1.5,4.1,2.56,7.96,1.25,12.3-7.52-12.54-11.77-26.08-14.93-40.37.18-.77.49-2.33.92-2.2l2.08.65c4.22,9.67,7.56,19.06,10.68,29.62Z"/>
  <path d="M99.78,244.86c-6.13.15-.35-14.79,1.89-25.03,2.91-9.82,6.83-18.39,12.19-26.92.83-.09,3.2-.22,2.96.31l-1.16,2.6-7.64,22.06-8.24,26.97Z"/>
  <path d="M160.37,243.81c-1.42,4.94-1.56,10.2-6.79,12.58,1.7-16.2,6.1-34.56,11.04-48.13l1.2-2.11c.25-.44,1.23.24,2.28.99-1.73,12.34-4.11,24.11-7.72,36.68Z"/>
  <path d="M131.45,236.25c-1.49,5.26-2.75,10.25-5.89,15.51-2.15-10.28,1.06-19.67,4.32-28.9,2.52-7.14,2.96-15.29,9.9-20.94-1.6,11.96-5.13,23.03-8.32,34.34Z"/>
  <path d="M194.84,216.83c.11,13.93-14.08,46.27-15.48,43.09l-1-2.27,12.09-36.99c1.39-1.92,2.06-3.03,4.39-3.83Z"/>
</svg>