<?xml version="1.0" encoding="UTF-8"?>
<svg id="Layer_1" data-name="Layer 1" xmlns="http://www.w3.org/2000/svg" viewBox="0 0 384.62 319.24" fill="#1C1A5E">
  <path d="M155.78,285.32c-6.39,1.07-12.33,1.79-18.57,1.77l-6.09-.02-13.73-.35c-3.12-.08-5.97-.76-9.01-1.47-2.82-.66-6.21-.68-8.89-1.66l-6.33-2.3-4.74-2.66c-.84-.48-2.36-1.71-2.89-2.43l-2.19-2.94-2.77-4.65c-1.25-2.1-2.97-9.51-2.18-12.58l1.9-7.37c.12-.47-.43-1.66-.79-1.83-1.79-.89-5.89,1.5-13.33,1.77-1.48.05-3.86-1.52-3.87-3.05,0-.75,1.4-2.09,1.94-2.71-.27-4.57-7.02-2.31-7.08-6.63-.02-1.6,1.48-2.41,3.36-2.62.78-.09,1.03-2.16.52-2.85-1.62-2.16-1.9-4.11-1.89-6.76.02-4.08,1.73-7.17,5.56-8.14,3.43-.87,1.61-5.58,3.7-7.88,2.45-2.7,5.53-.25,9.61-2.54,4.3-2.42,10.93,2.8,11.79,8.59,2.1,1.41,4.47-.53,6.07-1.72l2.94-2.19c6.23-4.64,11.65-9.76,17.01-15.41l2.64-2.3,3.65-2.81c2.17-1.67,3.1-3.1,3.96-5.71l2.48-7.49,2.49-8.99c1.08-3.9,1.68-7.73,2.2-11.81l1.4-10.97c.53-4.12.16-8.56,1.7-12.36l1.9-4.66c1.45-3.57,4.33-7.12,7.76-8.99l3.84-2.09,8.77-2.76c3.9-1.23,7.53-1.39,12.5-5.15,1.41-1.07,3.41-3.47,2.51-5.21-4.31-3.32-8.81-6.62-10.09-12.05l-1.89-8.01-2.79-14.77c-.71-3.75-.5-8.35.08-12.23.37-2.47,3.2-9.07,4.93-11.25,2.25-2.83,4.73-5.28,7.54-7.51l3.39-1.99,4.64-2.04c2.45-1.08,5.34-1.35,8.14-1.37l4.93-.03c3.67-.03,6.58.52,9.9,1.77,11.18,4.2,17.68,12.74,20,24.5.41,2.08.38,5.15.03,7.23l-2.25,13.38c-.51,3.06-1.65,6.11-1.97,9.33s-2.42,7.49-4.41,9.52l-2.54,2.58c-1.74,1.77-.56,4.97.88,6.52,4.22,4.55,9.6,5.4,15.14,7.12l6.86,2.14c1.42.44,3.51,1.62,4.82,2.48,6.11,4.01,8.99,10.65,10.28,17.71l1.14,6.2.53,7.01.39,5.14,1.7,8.75,2.38,9.58,3.13,9.43c.46,3.16,1.84,5.89,4.72,7.29l2.2,1.76,12.79,12.21,8.3,6.62,3.82,2.75c.74.53,1.99,1.4,2.78,1.4,2.72,0,2.74-8.97,11.8-9.68,2.39,1.23,4.87,1.86,7.44,1.72,6.96-.12,4.39,8.34,7.15,9.15,2.99.88,4.79,2.45,6.01,5.23.71,1.63,1.08,3.11.35,4.97l-2.11,5.41-.31,1.4c-.18.83,3.06.67,3.9,2.6.31.72-.23,2.84-.96,3.25-1.11.63-3.68,1.28-5.1,1.76-.92,1.18-.18,3.27.81,4.52.75.94-.48,3.39-1.69,3.53-10.43,1.17-16.07-5.2-16.09,1.01,3.14,5.78,2.74,12.24.26,18.12-2.68,7.61-9.42,13.49-17.23,15.39l-8.03,1.95c-6.76,1.64-13.37,2.31-20.34,2.28l-10-.05-9.45-.32-5.5-.48-14.47-2.53c-3.42-.6-6.74-1.87-10.21-2.15-3.16-1.31-6.34-2.18-9.78-2.67-4.49-2.86-9.59-2.88-14.2-.17l-9.66,2.75-9.76,2.13-10.18,1.7ZM129.1,241.68c7.31,1.22,6.62-2.13,10.49-2.22l8-.18,7.25-.23,22.8-.11c1.32,0,3.72.48,4.68,1.17l3.28,2.35,4.36,3.09c1.8,1.28,3.31,1.1,5.09-.14l5.03-3.5c1.74-1.21,3.66-2.91,6.02-2.9l28.64.19,10.29.25c4.69.11,3.72,3.32,10.1,2.31l7.91-1.26c2-.32,3.73.51,3.84,2.72.07,1.36-1.33,3.07-2.94,3.17l-6,.37c-3.09.19-5.79,1.49-7.39,4.34l-3.57,2.14-5.87,2.76-5.49,2.51-5.83,2.6-5.16,2.36-5.84,2.63-6.32,2.63c-3.14,1.31-6.25,1.81-8.59,4.61,1.75,1.06,3.45,1.5,5.35,1.94l12.58,2.94,6.98,1.41,12.72,1.32,6.51.61c4.03.38,7.84.42,11.94-.1,6.31-.8,12.66-.81,18.75-2.37l9.51-2.44,3.37-2.2c3.24-2.11,6.35-5.38,7.67-9.1,1.6-4.52,1.65-9.76-.18-14.15l-2.21-3.76c-1.02-1.74-2.81-3.28-4.49-4.42l-3.02-2.05c-2.47-1.68-5.26-2.29-8.27-2.78l-9.37-1.51-8.25-.34-5.42-.5-7.66-1.67c-2.56-.56-4.87-1.1-7.11-2.38l-4.79-2.74-2.54-1.99-2.91-2.53-3.31-3.79-2.56-3.78-2.66-4.91c-5.49-10.12-6.36-25.68-5.35-37.47l.35-4.11c.14-1.68,1.26-4.4,2.91-4.65,2.66-.4,3.49,2.29,4.26,4.1l2.41,5.7,2.44,6.07,2.8,7.1,2.31,5.65,2.57,6.05,2.05,3.8,4.9,6.67,4.92,4.52c2.34,2.15,5.23,4.23,8.11,5.7l5.01,2.55,5.15,2.26,7.76,2.7,9.15,2.39,10.89,1.7,6.76.89c3.04.4,5.31.24,8.1-1.09,3.83-1.82,8.07-5.16,7.96-7.8-.03-.8-1.13-2.29-1.78-2.39l-5.76,6.11c-1.15,1.22-3.56,1.03-5.14.7-4.83-1-6.82-8.57-4.43-10.8l6.07-5.65c-1.28-1.47-4.3-2.43-6.11-1.38-1.04.61-3.16,5.92-3.75,9.12l-3.41,2.35-5.26-2.8-7.9-5.16-8.76-7.15-5.58-5.49-3.02-2.92c-2.63-2.54-5.23-4.72-8.23-6.69-1.98-1.3-2.57-3.32-3.22-5.38l-2.89-9.12-2.14-7.38-1.94-8.91-1.56-9.87-.54-4.88-.47-7.58c-.4-6.42-4.9-15.45-11.55-17.57l-8.72-2.78-6.52-1.99c-4.21-1.28-8.55-4.16-10.84-7.87-.88-1.42-1.4-3.43-2.52-4.01-1.46-.75-3.22-.61-5.03-.64-.67-.56-1.66-2.36-1.94-3.3l2.98-2.82c6.46-.24,11.02-4.85,12.28-10.74l2.29-10.72c1.73-8.1,3.77-16.66.05-24.36-2.05-4.24-4.73-7.52-8.63-10.45s-11.56-5.16-16.39-4.88c-3.98.22-11.68,2.5-14.21,4.61l-3.86,3.22c-1.06.88-2.64,2.83-3.24,3.97l-2.48,4.76c-2.74,5.26-1.08,16.16.48,23.18.58,2.62,1.31,5.02,1.64,7.74.58,4.65,2.5,8.47,6.23,11.28s7.26,2.12,8.92,4.25-.8,3.66-1.75,4.88l-5.07,6.47c-1.45,1.85-3.36,3.3-5.49,4.07l-7.01,2.55-7.46,2.09c-3.66,1.03-8.66,3.26-10.34,5.92l-2.48,3.93c-2.94,5.7-3,11.96-3.48,18.17l-.39,5.09-1.67,9.08c-.63,3.43-1.29,6.46-2.24,9.75l-2.59,8.94-2.3,6.62c-.97,2.79-2.25,4.35-4.7,6.1l-3.14,2.25-2.59,2.33-6.99,7.03-4.88,4.49-6.31,4.81-5.31,3.59-3.18,1.91-5.22,2.4-3.09-3.23c-.76-.79-.24-3.51-.88-4.45l-2.82-4.14c-2.4-.42-4.41.28-6.05,1.65l5.67,4.81c1.82,1.54,1.57,5.14.89,7.42-.93,3.13-4.18,4.44-7.04,4.38-3.05-.07-5-2.17-6.28-5l-3.46-2.06-1.1,3.38,3.71,4.08c1.22,1.34,3.22,1.96,4.72,2.68,3.15,1.49,5.65,1.8,9.07,1.28l6.17-.93c3.92-.59,7.8-.94,11.67-1.94l7.14-1.85,8.94-3.11,5.51-2.38,4.23-2.26,5.08-3.33c4.28-2.8,7.73-6.09,10.78-10.23l2.35-3.19c1.05-1.42,1.55-2.99,2.25-4.73l2.89-7.12,2.46-6.01,2.73-6.78,2.19-5.21,2.39-6.1c.61-1.56,2.06-3.15,3.49-2.77,1.64.44,2.82,1.69,2.93,3.36l.44,6.41-.03,17.35c0,1.88-.22,4.47-.71,6.15l-2.67,9.13-2.43,5.45-2.6,4.31-4.44,5.54-5.24,4.85-3.59,2.25-5.29,2.56-11.01,2.65-6.25.55-10.05.47c-2.46.11-4.84.66-7.21,1.35l-6.62,1.94c-5.18,2.27-9.04,5.83-11.55,10.96-3.08,6.29-1.64,14.28,2.85,19.36,3.88,4.39,6.33,5.69,11.84,7.29,5.15,1.49,10.23,2.37,15.64,2.89l10.95,1.04c4.04.38,7.99.35,12.06-.15l20.18-2.45,6.91-1.52,7.59-1.76,10.1-2.89,7.49-2.47,6.02-2.09,5.2-1.88,5.33-2.21,6.34-2.63,5.99-2.52,5.82-2.62,5.18-2.36,5.35-2.56,5.98-2.54c1.23-.52,2.1-1.53,1.98-2.8-.07-.81-1.65-1.88-2.55-1.69-3.12.66-5.6.13-8.61.11l-26.71-.15-3.39,2.31-4.75,3.3c-3.4,2.37-9.4,4.1-13.97,4.09h-5.08c-4.22-.03-8.1-.76-12.26-1.33l-8.31-1.16-13.38-2-12.12-1.58-12.65-1.84c-1.83-.27-3.86-2.21-2.91-4.09,1.06-2.11,3.96-1.69,5.82-1.37l5.36.9ZM136.38,227.59l4.83-2.5,4.14-2.91,3.28-3.22,5.14-6.92,2.4-5.08c1.47-3.11,2.17-6.26,2.84-9.63.81-4.07,1.98-7.6.63-12.01-3.46,2.21-4.1,6.66-5.28,9.55l-2.15,5.27-2.82,6.08c-3.59,6.48-8.54,11.7-14.37,16.07l-3.77,2.28-5.52,3.22c.53,2.84,6.77,1.79,10.66-.22ZM259.08,227.66l-1.15-.58-4.49-2.48-4.21-2.83-2.74-2.22c-4.59-3.73-8.37-7.83-10.96-13.08l-1.66-3.37-3.21-7.83-2.33-6.18c-.57-1.51-1.94-2.62-3.85-3.16-.07,1.67,0,2.88.3,4.33.68,3.3.4,6.88,1.55,10.03l3.08,8.4,2.28,4.3,2.33,3.48c1.99,2.98,4.56,5.54,7.61,7.42l3.68,2.28,4.34,1.69c9.15,3.57,9.77-.03,9.43-.2ZM180.61,248.35c-.1-3.54-1.89-3.98-3.98-3.94-4.33.09-8.05-.38-12.54,1.08l8.81,2.25c2.6.66,5.41.97,7.71.61Z"/>
  <path d="M209.8,121.03c1.9-.26,3.4,1.16,3.69,2.46.34,1.51-.71,3.41-2.48,3.56l-9.58.83c-1.15,1.6-2.64,3.87-4.36,4.6-3.22,1.36-7.12,1.56-10.05-.4-1.55-1.03-3.16-3-4.54-4.27l-9.66-.88c-.92-.08-2.23-1.52-2.56-2.29-.37-.85.51-3.12,1.45-3.31,3.03-.61,5.71,0,8.71.5l6.74,1.15,4.73,5.24c2.72-1.01,3.68-3.15,4.91-5.38l13-1.81Z"/>
</svg>